<svg xmlns="http://www.w3.org/2000/svg" viewBox="0 0 1000 500" fill="none">
  <rect width="1000" height="500" rx="20" fill="#eef3f8"/>
  <g opacity=".65" fill="#cad5e3">
    <path d="M130 149c34-19 57-44 83-50 38-9 84 5 127 35 18 12 27 31 22 47-8 26-47 32-78 37-22 3-44 15-57 34-15 20-42 25-67 12-23-12-38-34-66-38-32-5-43-40-18-59 18-13 34-8 54-18Z"/>
    <path d="M342 116c18-15 39-29 70-31 22-1 45 10 57 28 11 17 33 21 50 9l27-18c26-17 62-19 90-5 25 13 36 41 25 64-12 24-41 39-69 37l-70-5c-30-2-59 10-79 33l-26 31c-20 24-59 20-76-7-17-28-16-69 1-93 8-11 17-27 0-43Z"/>
    <path d="M574 130c29-10 57-29 96-23 35 6 63 26 87 50 26 27 68 28 101 8 25-15 63-10 79 17 15 24 5 57-21 75-24 17-53 26-82 30-38 5-75 22-99 50l-20 24c-20 23-55 28-81 11l-29-19c-35-23-80-28-120-12-26 10-56-1-70-25-13-22-7-50 15-65 18-13 29-31 25-52-5-29 11-56 39-69Z"/>
    <path d="M785 327c15-10 35-11 50-1 17 11 23 35 13 54-17 33-59 51-95 40-21-7-33-30-25-50 10-28 31-30 57-43Z"/>
    <path d="M424 318c14-11 35-14 52-6 22 10 32 36 22 57-11 23-39 35-64 27-29-9-42-41-27-64 4-6 9-10 17-14Z"/>
  </g>
</svg>
